# xmcd
#
# Track frame offsets: 
#        150
#        1641
#        20436
#        36896
#        66494
#        84575
#        104736
#        122833
#        143290
#        166816
#        201386
#        221131
#        245040
#        266580
#        286307
#        311050
#        330001
#
# Disc length: 4480 seconds
#
# Revision: 0
# Processed by: cddbd v1.5.1PL2 Copyright (c) Steve Scherf et al.
# Submitted via: ExactAudioCopy v0.95a5
#
DISCID=f2117e11
DTITLE=Martin Baschung and Big B Tonic - Blues Shoes
DYEAR=2006
DGENRE=Blues
TTITLE0=Intro
TTITLE1=Somebody's reading my Mail
TTITLE2=I was guilty
TTITLE3=That's all right
TTITLE4=I'll never take my Blues Shoes off
TTITLE5=Black Cat Bone
TTITLE6=BMM - Shuffle
TTITLE7=Prayer in the night
TTITLE8=Help me
TTITLE9=Tin Pan Allery
TTITLE10=I just wana make love to you
TTITLE11=St. Luis Blues
TTITLE12=I need you
TTITLE13=You're the one
TTITLE14=Wake me up
TTITLE15=Had my fun
TTITLE16=Blues-Shoes
EXTD=
EXTT0=
EXTT1=
EXTT2=
EXTT3=
EXTT4=
EXTT5=
EXTT6=
EXTT7=
EXTT8=
EXTT9=
EXTT10=
EXTT11=
EXTT12=
EXTT13=
EXTT14=
EXTT15=
EXTT16=
PLAYORDER=
